<svg width="661" height="431" viewBox="0 0 661 431" fill="none" xmlns="http://www.w3.org/2000/svg">
<path opacity="0.26" d="M454.836 417.919C454.536 417.919 454.228 417.919 453.928 417.918C429.755 417.834 406.596 414.448 385.185 408.318C364.774 402.473 343.275 399.594 321.709 399.594C306.412 399.594 291.08 401.042 276.083 403.91C259.46 407.088 242.079 408.798 224.187 408.849C223.908 408.849 223.642 408.85 223.365 408.85C103.812 408.85 6.97364 335.185 6.20954 243.457C5.43988 151.014 102.961 75.8915 223.37 75.8915C228.917 75.8915 234.414 76.0524 239.856 76.3676C240.206 76.3873 240.555 76.3972 240.901 76.3972C246.041 76.3972 250.803 74.2072 253.187 70.6676C277.416 34.6981 326.37 10.1055 382.818 10.1055C463.342 10.1055 528.616 60.1476 528.616 121.877C528.616 122.816 529.361 123.658 530.496 124.015C603.286 146.951 654.443 201.99 653.972 266.144C653.355 349.982 564.092 417.922 454.836 417.919Z" fill="url(#paint0_linear_5444_3559)"/>
<g clip-path="url(#clip0_5444_3559)">
<path d="M459.092 232.146H189.822C183.66 232.146 178.94 227.11 179.323 220.948L189.192 62.0241C189.575 55.8619 194.926 50.8262 201.077 50.8262H470.358C476.509 50.8262 481.24 55.8619 480.857 62.0241L470.988 220.959C470.605 227.121 465.254 232.157 459.103 232.157L459.092 232.146Z" fill="#40AFFF"/>
<path opacity="0.8" d="M459.092 232.146H189.822C183.66 232.146 178.94 227.11 179.323 220.948L189.192 62.0241C189.575 55.8619 194.926 50.8262 201.077 50.8262H470.358C476.509 50.8262 481.24 55.8619 480.857 62.0241L470.988 220.959C470.605 227.121 465.254 232.157 459.103 232.157L459.092 232.146Z" fill="white"/>
<path opacity="0.4" d="M224.351 96.6207H192.29C190.532 96.6207 189.203 95.2012 189.316 93.4438L190.228 78.7648C190.341 77.0074 191.85 75.5879 193.596 75.5879H225.658L224.351 96.6207Z" fill="white"/>
<path d="M470.177 53.6211H235.414C230.773 53.6211 226.785 57.3838 226.503 62.0139L224.239 98.4806H192.177C190.419 98.4806 188.91 99.9 188.808 101.657L187.952 115.401C187.84 117.159 189.18 118.578 190.926 118.578H222.988L216.634 220.949C216.342 225.59 219.868 229.341 224.509 229.341H459.272C463.914 229.341 467.902 225.579 468.183 220.949L478.052 62.0139C478.345 57.3725 474.819 53.6211 470.177 53.6211Z" fill="white"/>
<path opacity="0.4" d="M221.625 140.556H189.563C187.806 140.556 186.477 139.136 186.589 137.379L187.445 123.635C187.558 121.877 189.068 120.458 190.814 120.458H222.876L221.625 140.556Z" fill="white"/>
<path opacity="0.4" d="M220.262 162.524H188.2C186.443 162.524 185.113 161.104 185.226 159.347L186.082 145.603C186.195 143.845 187.705 142.426 189.451 142.426H221.513L220.262 162.524Z" fill="white"/>
<path opacity="0.4" d="M218.899 184.481H186.837C185.08 184.481 183.75 183.061 183.863 181.304L184.719 167.56C184.832 165.802 186.341 164.383 188.088 164.383H220.149L218.899 184.481Z" fill="white"/>
<path opacity="0.4" d="M217.536 206.448H185.474C183.717 206.448 182.387 205.029 182.5 203.271L183.356 189.527C183.469 187.77 184.978 186.351 186.724 186.351H218.786L217.536 206.448Z" fill="white"/>
<path opacity="0.2" d="M191.873 116.031C191.501 116.031 191.163 115.885 190.915 115.637C190.667 115.378 190.555 115.028 190.577 114.657L191.332 102.591C191.388 101.769 192.121 101.07 192.943 101.07H220.127C220.499 101.07 220.837 101.217 221.084 101.465C221.332 101.724 221.445 102.073 221.422 102.445L220.668 114.521C220.611 115.344 219.879 116.042 219.057 116.042H191.873V116.031Z" fill="#40AFFF"/>
<path opacity="0.3" d="M282.392 72.558H243.627C240.664 72.558 238.388 70.1359 238.569 67.173C238.749 64.2102 241.329 61.7881 244.292 61.7881H283.056C286.019 61.7881 288.295 64.2102 288.115 67.173C287.934 70.1359 285.355 72.558 282.392 72.558Z" fill="#40AFFF"/>
<path d="M467.124 67.173C466.944 70.1471 464.376 72.558 461.401 72.558C458.427 72.558 456.163 70.1471 456.343 67.173C456.523 64.1989 459.092 61.7881 462.066 61.7881C465.04 61.7881 467.305 64.1989 467.124 67.173Z" fill="#40AFFF"/>
<path opacity="0.4" d="M357.375 164.755H242.962C237.07 164.755 232.575 159.956 232.936 154.076L236.383 98.4913C236.744 92.5994 241.836 87.8115 247.727 87.8115H362.141C368.032 87.8115 372.527 92.5994 372.167 98.4913L368.72 154.076C368.359 159.967 363.267 164.755 357.375 164.755ZM247.716 88.2621C242.083 88.2621 237.217 92.8472 236.867 98.48L233.42 154.064C233.071 159.697 237.374 164.282 243.007 164.282H357.42C363.053 164.282 367.92 159.697 368.269 154.064L371.716 98.48C372.066 92.8472 367.762 88.2621 362.129 88.2621H247.716Z" fill="#40AFFF"/>
<path d="M256.886 124.762L273.3 135.374C276.579 130.586 280.972 126.609 286.064 123.815L277.243 106.331C269.132 110.781 262.125 117.135 256.886 124.762Z" fill="#40AFFF"/>
<path opacity="0.8" d="M256.886 124.762L273.3 135.374C276.579 130.586 280.972 126.609 286.064 123.815L277.243 106.331C269.132 110.781 262.125 117.135 256.886 124.762Z" fill="white"/>
<path d="M246.984 153.219H267.082C267.487 146.662 269.74 140.556 273.289 135.374L256.875 124.762C251.22 133.019 247.626 142.764 246.984 153.219Z" fill="#263238"/>
<path d="M304.224 99.3242C294.57 99.3242 285.343 101.882 277.232 106.331L286.053 123.816C291.145 121.022 296.924 119.422 302.974 119.422C321.641 119.422 335.824 134.552 334.675 153.219H354.773C356.62 123.455 333.988 99.3242 304.224 99.3242Z" fill="#40AFFF"/>
<path d="M291.179 185.189H232.26C231.696 185.189 231.268 184.727 231.302 184.164L231.561 180.018C231.595 179.455 232.079 178.993 232.654 178.993H291.573L291.19 185.189H291.179Z" fill="#40AFFF"/>
<path opacity="0.2" d="M291.179 185.189H365.531C366.095 185.189 366.579 184.727 366.613 184.164L366.872 180.018C366.906 179.455 366.478 178.993 365.914 178.993H291.562L291.179 185.189Z" fill="#40AFFF"/>
<path d="M331.194 201.559H231.246C230.683 201.559 230.255 201.097 230.288 200.534L230.547 196.388C230.581 195.825 231.066 195.363 231.64 195.363H331.588L331.205 201.559H331.194Z" fill="#40AFFF"/>
<path opacity="0.2" d="M331.194 201.559H364.506C365.07 201.559 365.554 201.097 365.599 200.534L365.858 196.388C365.892 195.825 365.464 195.363 364.901 195.363H331.588L331.205 201.559H331.194Z" fill="#40AFFF"/>
<path d="M241.971 217.928H230.232C229.669 217.928 229.241 217.467 229.274 216.903L229.534 212.758C229.567 212.194 230.052 211.732 230.615 211.732H242.354L241.971 217.928Z" fill="#40AFFF"/>
<path opacity="0.2" d="M241.971 217.928H363.492C364.056 217.928 364.54 217.467 364.574 216.903L364.833 212.758C364.867 212.194 364.439 211.732 363.875 211.732H242.354L241.971 217.928Z" fill="#40AFFF"/>
<path d="M390.305 218.391C390.045 218.391 389.854 218.176 389.865 217.929L397.931 88.0254C397.943 87.7663 398.168 87.5635 398.427 87.5635C398.686 87.5635 398.878 87.7775 398.866 88.0254L390.8 217.929C390.789 218.188 390.564 218.391 390.305 218.391Z" fill="#40AFFF"/>
<path d="M399.396 122.059C399.294 123.771 397.807 125.168 396.095 125.168C394.383 125.168 393.076 123.771 393.177 122.059C393.279 120.346 394.766 118.949 396.478 118.949C398.19 118.949 399.497 120.346 399.396 122.059Z" fill="white"/>
<path d="M396.061 125.629C394.09 125.629 392.58 124.029 392.704 122.058C392.828 120.086 394.529 118.486 396.501 118.486C398.472 118.486 399.982 120.086 399.858 122.058C399.734 124.029 398.033 125.629 396.061 125.629ZM396.444 119.41C394.991 119.41 393.729 120.593 393.639 122.058C393.549 123.511 394.664 124.705 396.117 124.705C397.571 124.705 398.832 123.522 398.923 122.058C399.013 120.604 397.897 119.41 396.444 119.41Z" fill="#40AFFF"/>
<path d="M397.65 150.041C397.548 151.753 396.061 153.15 394.349 153.15C392.636 153.15 391.33 151.753 391.431 150.041C391.532 148.329 393.019 146.932 394.732 146.932C396.444 146.932 397.751 148.329 397.65 150.041Z" fill="white"/>
<path d="M394.326 153.614C392.355 153.614 390.845 152.014 390.969 150.043C391.093 148.071 392.794 146.472 394.766 146.472C396.737 146.472 398.247 148.071 398.123 150.043C397.999 152.014 396.298 153.614 394.326 153.614ZM394.709 147.395C393.256 147.395 391.994 148.578 391.904 150.043C391.814 151.507 392.929 152.69 394.383 152.69C395.836 152.69 397.098 151.507 397.188 150.043C397.278 148.59 396.163 147.395 394.709 147.395Z" fill="#40AFFF"/>
<path d="M393.695 163.64L389.583 170.084H397.019L393.695 163.64Z" fill="white"/>
<path d="M396.985 170.545H389.55C389.381 170.545 389.234 170.455 389.156 170.309C389.077 170.162 389.088 169.982 389.189 169.847L393.301 163.414C393.481 163.121 393.966 163.121 394.112 163.414L397.424 169.847C397.503 169.993 397.492 170.173 397.391 170.309C397.301 170.455 397.143 170.545 396.974 170.545H396.985ZM390.417 169.61H396.23L393.639 164.574L390.417 169.61Z" fill="#40AFFF"/>
<path d="M446.272 218.391C446.013 218.391 445.821 218.176 445.833 217.929L453.899 88.0254C453.91 87.7663 454.135 87.5635 454.394 87.5635C454.653 87.5635 454.845 87.7775 454.834 88.0254L446.768 217.929C446.756 218.188 446.531 218.391 446.272 218.391Z" fill="#40AFFF"/>
<path d="M452.164 173.621C452.265 171.909 450.969 170.512 449.246 170.512C447.522 170.512 446.046 171.909 445.945 173.621C445.844 175.333 447.139 176.73 448.863 176.73C450.586 176.73 452.062 175.333 452.164 173.621Z" fill="white"/>
<path d="M448.829 177.192C446.858 177.192 445.348 175.592 445.472 173.621C445.596 171.65 447.297 170.05 449.268 170.05C451.24 170.05 452.75 171.65 452.626 173.621C452.502 175.592 450.801 177.192 448.829 177.192ZM449.212 170.974C447.759 170.974 446.497 172.156 446.407 173.621C446.317 175.074 447.432 176.268 448.885 176.268C450.339 176.268 451.6 175.086 451.691 173.621C451.781 172.156 450.665 170.974 449.212 170.974Z" fill="#40AFFF"/>
<path d="M456.501 103.65C456.602 101.938 455.307 100.541 453.583 100.541C451.86 100.541 450.384 101.938 450.282 103.65C450.181 105.363 451.477 106.76 453.2 106.76C454.924 106.76 456.4 105.363 456.501 103.65Z" fill="white"/>
<path d="M453.166 107.221C451.195 107.221 449.685 105.622 449.809 103.65C449.933 101.679 451.634 100.079 453.606 100.079C455.577 100.079 457.087 101.679 456.963 103.65C456.839 105.622 455.138 107.221 453.166 107.221ZM453.549 101.003C452.096 101.003 450.834 102.186 450.744 103.65C450.654 105.104 451.769 106.298 453.223 106.298C454.676 106.298 455.938 105.115 456.028 103.65C456.118 102.197 455.003 101.003 453.549 101.003Z" fill="#40AFFF"/>
<path d="M450.992 142.314L447.68 135.87H455.104L450.992 142.314Z" fill="white"/>
<path d="M450.97 142.776C450.801 142.776 450.654 142.686 450.575 142.539L447.263 136.107C447.184 135.96 447.196 135.78 447.297 135.645C447.387 135.498 447.545 135.408 447.714 135.408H455.149C455.318 135.408 455.465 135.498 455.543 135.645C455.622 135.791 455.611 135.971 455.51 136.107L451.398 142.539C451.308 142.686 451.15 142.776 450.981 142.776H450.97ZM448.457 136.343L451.048 141.379L454.27 136.343H448.457Z" fill="#40AFFF"/>
<path d="M418.288 218.391C418.029 218.391 417.838 218.176 417.849 217.929L425.915 88.0254C425.926 87.7663 426.152 87.5635 426.411 87.5635C426.67 87.5635 426.861 87.7775 426.85 88.0254L418.784 217.929C418.773 218.188 418.547 218.391 418.288 218.391Z" fill="#40AFFF"/>
<path d="M426.884 130.035C426.782 131.747 425.295 133.144 423.583 133.144C421.871 133.144 420.564 131.747 420.665 130.035C420.767 128.323 422.254 126.926 423.966 126.926C425.678 126.926 426.985 128.323 426.884 130.035Z" fill="white"/>
<path d="M423.549 133.605C421.578 133.605 420.068 132.006 420.192 130.034C420.316 128.063 422.017 126.463 423.989 126.463C425.96 126.463 427.47 128.063 427.346 130.034C427.222 132.006 425.521 133.605 423.549 133.605ZM423.932 127.387C422.479 127.387 421.217 128.57 421.127 130.034C421.037 131.487 422.152 132.681 423.606 132.681C425.059 132.681 426.321 131.499 426.411 130.034C426.501 128.57 425.385 127.387 423.932 127.387Z" fill="#40AFFF"/>
<path d="M423.02 192.255C422.918 193.967 421.431 195.364 419.719 195.364C418.006 195.364 416.7 193.967 416.801 192.255C416.902 190.542 418.389 189.146 420.102 189.146C421.814 189.146 423.121 190.542 423.02 192.255Z" fill="white"/>
<path d="M419.685 195.837C417.714 195.837 416.204 194.237 416.328 192.266C416.452 190.294 418.153 188.694 420.124 188.694C422.096 188.694 423.605 190.294 423.482 192.266C423.358 194.237 421.657 195.837 419.685 195.837ZM420.068 189.618C418.615 189.618 417.353 190.801 417.263 192.266C417.173 193.73 418.288 194.913 419.741 194.913C421.195 194.913 422.456 193.73 422.546 192.266C422.637 190.812 421.521 189.618 420.068 189.618Z" fill="#40AFFF"/>
<path d="M426.005 94.0977L421.882 100.542H429.317L426.005 94.0977Z" fill="white"/>
<path d="M429.295 101.003H421.859C421.69 101.003 421.544 100.913 421.465 100.767C421.386 100.62 421.397 100.44 421.499 100.305L425.611 93.872C425.791 93.5791 426.275 93.5791 426.422 93.872L429.734 100.305C429.813 100.451 429.802 100.631 429.7 100.767C429.61 100.913 429.452 101.003 429.283 101.003H429.295ZM422.727 100.068H428.54L425.949 95.0324L422.727 100.068Z" fill="#40AFFF"/>
<path d="M123.051 127.545L121.914 133.031L120.787 138.653C120.044 142.393 119.413 146.144 118.838 149.817C118.557 151.653 118.331 153.467 118.128 155.258C117.914 157.049 117.768 158.784 117.678 160.463C117.576 162.13 117.61 163.73 117.667 165.059C117.712 166.377 117.948 167.504 117.903 167.628L117.148 166.332C116.81 165.994 116.191 165.679 116.089 165.825C115.965 165.938 116.382 166.231 117.103 166.422C117.813 166.614 118.827 166.749 119.931 166.805C121.046 166.862 122.274 166.805 123.558 166.715C126.138 166.546 128.898 166.107 131.703 165.589C133.112 165.318 134.531 165.048 135.962 164.732L140.175 163.82L140.738 163.696C143.927 163.009 147.07 165.025 147.768 168.225C148.275 170.568 147.318 172.877 145.515 174.229L143.42 175.784L141.336 177.192C139.927 178.093 138.497 178.972 137.01 179.783C134.035 181.417 130.915 182.859 127.468 184.042C125.744 184.627 123.93 185.112 121.981 185.517C120.021 185.9 117.937 186.182 115.571 186.137C113.217 186.081 110.558 185.776 107.618 184.627C104.7 183.523 101.579 181.214 99.5064 178.307C99.2811 177.992 99.0896 177.677 98.9206 177.35L98.7517 177.012C96.9717 173.486 96.3746 170.613 95.8677 167.954C95.3945 165.296 95.2368 162.851 95.1467 160.497C95.0678 158.142 95.0678 155.855 95.1467 153.625C95.2481 151.394 95.4058 149.197 95.6086 147.034C95.9916 142.708 96.6337 138.484 97.366 134.315C97.749 132.231 98.1433 130.158 98.6052 128.086C98.8418 127.049 99.0671 126.024 99.3149 124.987L100.137 121.799C101.771 115.491 108.203 111.705 114.512 113.339C120.629 114.916 124.37 121.011 123.108 127.128L123.018 127.556L123.051 127.545Z" fill="#40AFFF"/>
<path opacity="0.2" d="M123.051 127.545L121.914 133.031L120.787 138.653C120.044 142.393 119.413 146.144 118.838 149.817C118.557 151.653 118.331 153.467 118.128 155.258C117.914 157.049 117.768 158.784 117.678 160.463C117.576 162.13 117.61 163.73 117.667 165.059C117.712 166.377 117.948 167.504 117.903 167.628L117.148 166.332C116.81 165.994 116.191 165.679 116.089 165.825C115.965 165.938 116.382 166.231 117.103 166.422C117.813 166.614 118.827 166.749 119.931 166.805C121.046 166.862 122.274 166.805 123.558 166.715C126.138 166.546 128.898 166.107 131.703 165.589C133.112 165.318 134.531 165.048 135.962 164.732L140.175 163.82L140.738 163.696C143.927 163.009 147.07 165.025 147.768 168.225C148.275 170.568 147.318 172.877 145.515 174.229L143.42 175.784L141.336 177.192C139.927 178.093 138.497 178.972 137.01 179.783C134.035 181.417 130.915 182.859 127.468 184.042C125.744 184.627 123.93 185.112 121.981 185.517C120.021 185.9 117.937 186.182 115.571 186.137C113.217 186.081 110.558 185.776 107.618 184.627C104.7 183.523 101.579 181.214 99.5064 178.307C99.2811 177.992 99.0896 177.677 98.9206 177.35L98.7517 177.012C96.9717 173.486 96.3746 170.613 95.8677 167.954C95.3945 165.296 95.2368 162.851 95.1467 160.497C95.0678 158.142 95.0678 155.855 95.1467 153.625C95.2481 151.394 95.4058 149.197 95.6086 147.034C95.9916 142.708 96.6337 138.484 97.366 134.315C97.749 132.231 98.1433 130.158 98.6052 128.086C98.8418 127.049 99.0671 126.024 99.3149 124.987L100.137 121.799C101.771 115.491 108.203 111.705 114.512 113.339C120.629 114.916 124.37 121.011 123.108 127.128L123.018 127.556L123.051 127.545Z" fill="black"/>
<path d="M94.5496 415.673C94.5496 415.673 83.8811 405.996 84.1177 402.943L75.2517 398.403L69.9794 407.506L74.88 410.243L76.2093 409.838L77.0993 411.381C81.5154 413.646 91.1587 418.039 94.5271 417.915C95.1805 416.451 94.5384 415.662 94.5384 415.662L94.5496 415.673Z" fill="#263238"/>
<path d="M95.3044 301.948C101.748 255.793 99.6416 227.742 106.412 204.996L148.32 201.628C148.32 201.628 129.743 274.843 121.226 305.339C112.676 335.947 86.0441 404.949 86.0441 404.949L74.3842 398.978C74.3842 398.978 83.9599 337.66 95.3044 301.959V301.948Z" fill="#263238"/>
<path opacity="0.2" d="M129.484 235.751C126.634 242.341 121.069 284.677 121.091 305.812C121.136 305.654 121.181 305.485 121.227 305.327C124.212 294.614 128.459 278.616 132.695 262.372L129.484 235.751Z" fill="black"/>
<path d="M161.873 417.193C161.873 417.193 144.49 413.251 143.69 410.423H132.661L131.749 420.922H137.877L139.004 419.954L140.367 420.922C145.335 420.922 159.665 420.967 162.74 419.12C162.763 417.531 161.861 417.182 161.861 417.182L161.873 417.193Z" fill="#263238"/>
<path d="M132.436 303.243C123.232 240.696 123.232 201.988 123.232 201.988L164.238 201.323C164.238 201.323 159.315 275.901 157.603 307.141C155.823 339.619 145.684 411.099 145.684 411.099H131.388C131.388 411.099 128.121 343.393 132.436 303.243Z" fill="#263238"/>
<path d="M127.986 84.5781C126.037 96.8351 122.5 103.425 120.122 109.52C124.257 113.362 133.112 118.138 142.057 118.014C151.001 117.89 149.357 111.841 146.957 108.72C140.558 105.487 140.299 102.22 141.865 99.3473L127.975 84.5781H127.986Z" fill="#7F3E3B"/>
<path d="M112.665 111.255C112.665 111.255 118.365 104.552 120.618 103.425C122.86 102.299 139.916 104.608 143.938 105.352C147.96 106.095 152.86 112.089 152.86 112.089L112.665 111.244V111.255Z" fill="#263238"/>
<path d="M156.217 83.5529C156.037 84.364 156.319 85.1076 156.848 85.2202C157.378 85.3329 157.952 84.7696 158.133 83.9697C158.313 83.1586 158.031 82.4151 157.502 82.3024C156.972 82.1898 156.398 82.7531 156.217 83.5529Z" fill="#263238"/>
<path d="M155.913 84.668C155.913 84.668 156.713 89.7262 158.234 92.4074C156.499 93.4326 154.201 92.2948 154.201 92.2948L155.913 84.668Z" fill="#630F0F"/>
<path d="M159.011 78.901C158.876 78.9912 158.707 79.0024 158.549 78.9348C156.589 78.0786 155.113 79.0137 155.046 79.0588C154.82 79.2052 154.516 79.1376 154.381 78.9123C154.235 78.687 154.302 78.3828 154.516 78.2364C154.595 78.18 156.476 76.9634 158.932 78.0336C159.18 78.1462 159.293 78.4279 159.18 78.6757C159.135 78.7658 159.079 78.8447 159 78.8898L159.011 78.901Z" fill="#263238"/>
<path d="M129.405 75.3285C127.783 85.3774 126.33 91.1791 130.216 97.3527C136.052 106.636 149.357 104.743 153.953 95.3474C158.087 86.8982 160.036 71.8812 151.193 65.8429C142.473 59.8834 131.028 65.2796 129.417 75.3285H129.405Z" fill="#7F3E3B"/>
<path d="M147.667 84.9497C155.801 86.7071 153.435 76.6582 151.497 75.6556C156.375 78.5846 159.631 75.1937 159.327 72.1182C163.067 71.4873 162.875 65.2912 160.307 65.1673C158.685 60.9089 151.103 57.349 149.695 59.9739C145.594 55.2198 134.655 56.0309 136.244 59.4782C132.075 58.6671 123.232 59.0389 126.195 65.3025C119.875 66.1136 120.168 76.9398 124.302 78.0664C119.987 80.4547 124.167 88.611 126.014 93.7255C127.839 98.7387 146.439 94.2888 147.656 84.9609L147.667 84.9497Z" fill="#263238"/>
<path d="M143.037 83.9241C142.665 86.3237 143.318 88.5881 144.377 90.0751C145.966 92.3057 148.422 90.92 149.368 88.205C150.224 85.7604 150.427 81.671 148.162 80.4431C145.932 79.2376 143.453 81.1866 143.037 83.9354V83.9241Z" fill="#7F3E3B"/>
<path d="M113.239 110.129C127.096 108.416 146.743 108.574 159.8 110.85C166.447 112.01 171.426 117.553 171.967 124.278C173.589 144.185 169.184 178.973 165.388 213.986C134.689 224.283 103.528 213.851 103.528 213.851C102.841 206.787 106.649 183.637 109.026 171.278C107.28 158.514 102.864 143.903 100.363 126.96C99.146 118.736 105.004 111.143 113.262 110.129H113.239Z" fill="#40AFFF"/>
<path opacity="0.2" d="M154.933 137.999C157.028 149.986 163.664 164.27 169.736 173.722C170.57 165.442 171.268 157.556 171.719 150.278L154.944 137.999H154.933Z" fill="black"/>
<path d="M256.436 110.231C246.928 104.575 234.626 107.696 228.97 117.215C223.518 126.385 226.244 138.113 234.952 144.016C232.947 146.72 227.089 154.673 225.275 157.726C223.067 161.433 221.896 164.767 223.45 165.691C225.005 166.615 227.371 163.99 229.579 160.284C231.393 157.231 235.583 148.286 237.003 145.233C246.353 150.077 257.957 146.866 263.409 137.696C269.065 128.188 265.944 115.897 256.436 110.231ZM261.246 136.401C256.301 144.715 245.553 147.441 237.251 142.506C228.937 137.561 226.199 126.814 231.145 118.5C236.09 110.186 246.838 107.459 255.152 112.405C263.466 117.35 266.192 128.087 261.258 136.401H261.246Z" fill="#40AFFF"/>
<path opacity="0.2" d="M262.058 136.883C256.842 145.648 245.508 148.52 236.755 143.316C227.99 138.1 225.095 126.778 230.311 118.002C235.527 109.237 246.86 106.353 255.625 111.569C264.389 116.774 267.273 128.107 262.058 136.872V136.883Z" fill="#40AFFF"/>
<path d="M233.33 154.413L230.897 152.25C229.984 151.439 228.722 151.113 227.528 151.394L221.941 152.679C219.71 153.186 217.862 154.751 216.984 156.869L216.443 158.176C220.239 162.04 227.202 163.415 227.202 163.415L229.139 164.023C230.863 164.564 232.62 163.708 233.172 162.04L234.434 158.21C234.873 156.892 234.434 155.371 233.33 154.391V154.413Z" fill="#7F3E3B"/>
<path d="M171.415 120.199L173.69 125.145L176.067 130.192C177.656 133.549 179.334 136.827 181.013 140.015C181.858 141.604 182.736 143.158 183.626 144.645C184.494 146.155 185.384 147.586 186.296 148.915C187.186 150.244 188.133 151.45 188.944 152.43C189.732 153.41 190.555 154.097 190.566 154.21L189.18 153.647C190.082 154.142 191.929 154.705 194.092 154.886C196.255 155.077 198.722 155.134 201.268 154.976C203.826 154.863 206.484 154.593 209.177 154.277C210.529 154.108 211.892 153.951 213.255 153.748L217.277 153.207L217.84 153.128C221.084 152.689 224.07 154.965 224.498 158.209C224.813 160.53 223.721 162.727 221.896 163.943L219.845 165.295L217.829 166.512C216.466 167.289 215.091 168.044 213.672 168.731C212.252 169.407 210.822 170.083 209.334 170.691C207.859 171.288 206.338 171.852 204.783 172.37C201.663 173.35 198.384 174.229 194.768 174.623C191.163 175.017 187.153 175.13 182.534 173.879C182.241 173.801 181.959 173.699 181.689 173.575L181.148 173.316C177.633 171.649 175.414 169.768 173.42 167.976C171.448 166.174 169.871 164.349 168.384 162.546C165.433 158.941 163.01 155.336 160.791 151.686C158.549 148.059 156.578 144.364 154.719 140.646C153.806 138.776 152.894 136.917 152.06 135.013C151.643 134.067 151.215 133.121 150.821 132.152L149.616 129.144C147.194 123.094 150.123 116.234 156.172 113.8C162.03 111.446 168.654 114.127 171.268 119.793L171.46 120.21L171.415 120.199Z" fill="#40AFFF"/>
<g filter="url(#filter0_d_5444_3559)">
<path d="M587.285 192.257H352.522C347.88 192.257 343.892 196.02 343.611 200.65L341.346 237.116L340.096 257.214L333.742 359.584C333.449 364.226 336.975 367.977 341.617 367.977H576.38C581.021 367.977 585.009 364.214 585.291 359.584L595.159 200.65C595.452 196.008 591.926 192.257 587.285 192.257Z" fill="white"/>
</g>
<g clip-path="url(#clip1_5444_3559)">
<path d="M422.439 298.975L356.271 299.161L356.397 344.596L411.258 344.436L418.696 344.416L422.572 344.403L422.439 298.975Z" fill="#F5F5F5"/>
<path d="M361.363 339.724C361.283 339.724 361.196 332.019 361.17 322.514C361.143 313.008 361.183 305.297 361.263 305.297C361.343 305.297 361.429 313.001 361.456 322.514C361.482 332.019 361.442 339.724 361.363 339.724Z" fill="#263238"/>
<path d="M418.769 334.818C418.769 334.898 405.867 334.998 389.946 335.044C374.026 335.091 361.123 335.064 361.123 334.984C361.123 334.904 374.026 334.805 389.946 334.758C405.86 334.712 418.769 334.738 418.769 334.818Z" fill="#EBEBEB"/>
<path d="M418.756 329.766C418.756 329.846 405.853 329.946 389.933 329.992C374.012 330.039 361.11 330.012 361.11 329.932C361.11 329.853 374.012 329.753 389.933 329.706C405.847 329.66 418.756 329.687 418.756 329.766Z" fill="#EBEBEB"/>
<path d="M418.743 324.714C418.743 324.793 405.84 324.893 389.92 324.94C373.999 324.986 361.097 324.96 361.097 324.88C361.097 324.8 373.999 324.7 389.92 324.654C405.834 324.607 418.743 324.634 418.743 324.714Z" fill="#EBEBEB"/>
<path d="M418.729 319.669C418.729 319.748 405.827 319.848 389.906 319.895C373.986 319.941 361.083 319.915 361.083 319.835C361.083 319.755 373.986 319.655 389.906 319.609C405.82 319.562 418.729 319.589 418.729 319.669Z" fill="#EBEBEB"/>
<path d="M418.716 314.617C418.716 314.697 405.814 314.796 389.893 314.843C373.973 314.889 361.07 314.863 361.07 314.783C361.07 314.703 373.973 314.604 389.893 314.557C405.807 314.511 418.716 314.537 418.716 314.617Z" fill="#EBEBEB"/>
<path d="M418.703 309.564C418.703 309.644 405.8 309.744 389.88 309.79C373.959 309.837 361.057 309.81 361.057 309.73C361.057 309.651 373.959 309.551 389.88 309.504C405.794 309.458 418.703 309.484 418.703 309.564Z" fill="#EBEBEB"/>
<path d="M418.683 304.513C418.683 304.593 405.78 304.693 389.86 304.739C373.939 304.786 361.037 304.759 361.037 304.68C361.037 304.6 373.939 304.5 389.86 304.454C405.774 304.407 418.683 304.434 418.683 304.513Z" fill="#EBEBEB"/>
<path d="M369.138 331.834L365.003 331.846L365.025 339.716L369.16 339.705L369.138 331.834Z" fill="#00B7FF"/>
<path d="M399.17 331.752L395.036 331.764L395.058 339.634L399.192 339.623L399.17 331.752Z" fill="#00B7FF"/>
<path d="M377.249 326.019L373.114 326.031L373.155 339.692L377.289 339.679L377.249 326.019Z" fill="#00B7FF"/>
<path d="M392.371 322.424L388.236 322.436L388.284 339.646L392.419 339.634L392.371 322.424Z" fill="#00B7FF"/>
<path d="M384.878 311.984L380.743 311.996L380.825 339.669L384.96 339.657L384.878 311.984Z" fill="#00B7FF"/>
<path d="M407.14 317.037L403.005 317.049L403.068 339.603L407.203 339.592L407.14 317.037Z" fill="#00B7FF"/>
<path d="M412.129 339.577C412.129 339.657 400.788 339.757 386.795 339.797C372.803 339.837 361.462 339.803 361.456 339.724C361.456 339.644 372.796 339.544 386.789 339.504C400.781 339.464 412.122 339.498 412.122 339.577H412.129Z" fill="#263238"/>
<path d="M355.666 227.815V294.535H462.775H472.174H499.994V227.815H355.666Z" fill="#F5F5F5"/>
<path d="M365.823 273.901V276.009H365.604V274.094H365.105V273.901H365.816H365.823Z" fill="#263238"/>
<path d="M366.322 274.959C366.322 274.288 366.674 273.889 367.159 273.889C367.644 273.889 368.003 274.288 368.003 274.959C368.003 275.63 367.651 276.029 367.159 276.029C366.667 276.029 366.322 275.63 366.322 274.959ZM367.784 274.959C367.784 274.394 367.531 274.088 367.166 274.088C366.8 274.088 366.548 274.401 366.548 274.959C366.548 275.517 366.8 275.83 367.166 275.83C367.531 275.83 367.784 275.517 367.784 274.959Z" fill="#263238"/>
<path d="M366.674 262.721V262.913H365.198V262.761L366.076 261.903C366.315 261.67 366.361 261.524 366.361 261.385C366.361 261.139 366.189 260.992 365.869 260.992C365.624 260.992 365.431 261.066 365.298 261.225L365.145 261.092C365.304 260.899 365.57 260.793 365.889 260.793C366.315 260.793 366.587 261.012 366.587 261.365C366.587 261.564 366.528 261.744 366.242 262.023L365.524 262.727H366.68L366.674 262.721Z" fill="#263238"/>
<path d="M366.933 261.857C366.933 261.186 367.285 260.787 367.77 260.787C368.256 260.787 368.615 261.186 368.615 261.857C368.615 262.529 368.262 262.928 367.77 262.928C367.279 262.928 366.933 262.529 366.933 261.857ZM368.395 261.857C368.395 261.292 368.143 260.987 367.777 260.987C367.411 260.987 367.159 261.299 367.159 261.857C367.159 262.416 367.411 262.728 367.777 262.728C368.143 262.728 368.395 262.416 368.395 261.857Z" fill="#263238"/>
<path d="M366.627 249.207C366.627 249.56 366.368 249.832 365.863 249.832C365.557 249.832 365.265 249.726 365.105 249.56L365.211 249.387C365.344 249.526 365.59 249.633 365.863 249.633C366.215 249.633 366.401 249.473 366.401 249.207C366.401 248.941 366.222 248.789 365.83 248.789H365.677V248.629L366.262 247.898H365.185V247.705H366.541V247.858L365.943 248.609C366.395 248.636 366.621 248.868 366.621 249.207H366.627Z" fill="#263238"/>
<path d="M366.933 248.762C366.933 248.09 367.285 247.691 367.77 247.691C368.256 247.691 368.615 248.09 368.615 248.762C368.615 249.433 368.262 249.832 367.77 249.832C367.279 249.832 366.933 249.433 366.933 248.762ZM368.395 248.762C368.395 248.197 368.143 247.891 367.777 247.891C367.411 247.891 367.159 248.203 367.159 248.762C367.159 249.32 367.411 249.632 367.777 249.632C368.143 249.632 368.395 249.32 368.395 248.762Z" fill="#263238"/>
<path d="M375.116 281.865C375.116 281.194 375.468 280.795 375.954 280.795C376.439 280.795 376.798 281.194 376.798 281.865C376.798 282.537 376.446 282.935 375.954 282.935C375.462 282.935 375.116 282.537 375.116 281.865ZM376.579 281.865C376.579 281.3 376.326 280.994 375.96 280.994C375.595 280.994 375.342 281.307 375.342 281.865C375.342 282.424 375.595 282.736 375.96 282.736C376.326 282.736 376.579 282.424 376.579 281.865Z" fill="#263238"/>
<path d="M390.711 280.814V282.922H390.491V281.007H389.993V280.814H390.704H390.711Z" fill="#263238"/>
<path d="M407.143 282.73V282.922H405.667V282.769L406.545 281.912C406.784 281.679 406.831 281.533 406.831 281.393C406.831 281.147 406.658 281.001 406.339 281.001C406.093 281.001 405.9 281.074 405.767 281.234L405.614 281.101C405.774 280.908 406.04 280.802 406.359 280.802C406.784 280.802 407.057 281.021 407.057 281.373C407.057 281.573 406.997 281.759 406.711 282.032L405.993 282.736H407.15L407.143 282.73Z" fill="#263238"/>
<path d="M422.678 282.317C422.678 282.669 422.419 282.942 421.914 282.942C421.608 282.942 421.315 282.835 421.156 282.669L421.262 282.496C421.395 282.636 421.641 282.742 421.914 282.742C422.266 282.742 422.452 282.583 422.452 282.317C422.452 282.051 422.273 281.898 421.88 281.898H421.727V281.738L422.312 281.007H421.236V280.814H422.592V280.967L421.993 281.718C422.445 281.745 422.671 281.978 422.671 282.317H422.678Z" fill="#263238"/>
<path d="M438.658 282.37H438.239V282.922H438.02V282.37H436.83V282.21L437.947 280.814H438.186L437.109 282.177H438.027V281.692H438.239V282.177H438.658V282.37Z" fill="#263238"/>
<path d="M453.874 282.303C453.874 282.662 453.621 282.942 453.11 282.942C452.804 282.942 452.518 282.835 452.352 282.669L452.458 282.496C452.591 282.636 452.837 282.742 453.103 282.742C453.462 282.742 453.648 282.569 453.648 282.31C453.648 282.038 453.482 281.871 452.943 281.871H452.491L452.598 280.814H453.748V281.007H452.784L452.711 281.679H452.983C453.615 281.679 453.861 281.931 453.861 282.303H453.874Z" fill="#263238"/>
<path d="M469.608 282.291C469.608 282.683 469.296 282.935 468.891 282.935C468.332 282.935 468.026 282.55 468.026 281.885C468.026 281.167 468.419 280.795 468.99 280.795C469.183 280.795 469.356 280.828 469.489 280.908L469.402 281.081C469.296 281.008 469.15 280.981 468.99 280.981C468.538 280.981 468.246 281.274 468.246 281.845C468.246 281.892 468.246 281.952 468.252 282.018C468.359 281.785 468.605 281.659 468.897 281.659C469.316 281.659 469.608 281.905 469.608 282.291ZM469.396 282.291C469.396 282.011 469.19 281.839 468.864 281.839C468.538 281.839 468.325 282.038 468.325 282.297C468.325 282.53 468.518 282.749 468.884 282.749C469.19 282.749 469.396 282.57 469.396 282.291Z" fill="#263238"/>
<path d="M485.097 280.814V280.967L484.213 282.922H483.98L484.844 281.007H483.761V281.399H483.548V280.814H485.097Z" fill="#263238"/>
<path d="M485.21 275.058C485.21 275.171 460.827 275.264 430.755 275.264C400.682 275.264 376.299 275.171 376.299 275.058C376.299 274.945 400.675 274.852 430.755 274.852C460.834 274.852 485.21 274.945 485.21 275.058Z" fill="#263238"/>
<path d="M485.21 261.891C485.21 262.004 460.827 262.097 430.755 262.097C400.682 262.097 376.299 262.004 376.299 261.891C376.299 261.778 400.675 261.685 430.755 261.685C460.834 261.685 485.21 261.778 485.21 261.891Z" fill="#263238"/>
<path d="M485.21 248.728C485.21 248.841 460.827 248.934 430.755 248.934C400.682 248.934 376.299 248.841 376.299 248.728C376.299 248.615 400.675 248.521 430.755 248.521C460.834 248.521 485.21 248.615 485.21 248.728Z" fill="#263238"/>
<path d="M376.293 274.865C376.293 275.251 375.98 275.563 375.595 275.563C375.209 275.563 374.897 275.251 374.897 274.865C374.897 274.479 375.209 274.167 375.595 274.167C375.98 274.167 376.293 274.479 376.293 274.865Z" fill="#00B7FF"/>
<path d="M391.954 274.865C391.954 275.251 391.641 275.563 391.256 275.563C390.87 275.563 390.558 275.251 390.558 274.865C390.558 274.479 390.87 274.167 391.256 274.167C391.641 274.167 391.954 274.479 391.954 274.865Z" fill="#00B7FF"/>
<path d="M407.615 274.865C407.615 275.251 407.303 275.563 406.917 275.563C406.532 275.563 406.219 275.251 406.219 274.865C406.219 274.479 406.532 274.167 406.917 274.167C407.303 274.167 407.615 274.479 407.615 274.865Z" fill="#00B7FF"/>
<path d="M423.27 274.865C423.27 275.251 422.957 275.563 422.572 275.563C422.186 275.563 421.874 275.251 421.874 274.865C421.874 274.479 422.186 274.167 422.572 274.167C422.957 274.167 423.27 274.479 423.27 274.865Z" fill="#00B7FF"/>
<path d="M438.931 274.865C438.931 275.251 438.618 275.563 438.233 275.563C437.847 275.563 437.535 275.251 437.535 274.865C437.535 274.479 437.847 274.167 438.233 274.167C438.618 274.167 438.931 274.479 438.931 274.865Z" fill="#00B7FF"/>
<path d="M470.247 274.865C470.247 275.251 469.934 275.563 469.549 275.563C469.163 275.563 468.851 275.251 468.851 274.865C468.851 274.479 469.163 274.167 469.549 274.167C469.934 274.167 470.247 274.479 470.247 274.865Z" fill="#00B7FF"/>
<path d="M454.586 274.865C454.586 275.251 454.273 275.563 453.888 275.563C453.502 275.563 453.19 275.251 453.19 274.865C453.19 274.479 453.502 274.167 453.888 274.167C454.273 274.167 454.586 274.479 454.586 274.865Z" fill="#00B7FF"/>
<path d="M485.908 274.865C485.908 275.251 485.595 275.563 485.21 275.563C484.824 275.563 484.512 275.251 484.512 274.865C484.512 274.479 484.824 274.167 485.21 274.167C485.595 274.167 485.908 274.479 485.908 274.865Z" fill="#00B7FF"/>
<path d="M383.432 275.058C383.432 275.311 383.226 275.517 382.973 275.517C382.721 275.517 382.515 275.311 382.515 275.058C382.515 274.806 382.721 274.6 382.973 274.6C383.226 274.6 383.432 274.806 383.432 275.058Z" fill="#E0E0E0"/>
<path d="M399.146 275.058C399.146 275.311 398.94 275.517 398.688 275.517C398.435 275.517 398.229 275.311 398.229 275.058C398.229 274.806 398.435 274.6 398.688 274.6C398.94 274.6 399.146 274.806 399.146 275.058Z" fill="#E0E0E0"/>
<path d="M414.867 275.058C414.867 275.311 414.661 275.517 414.409 275.517C414.156 275.517 413.95 275.311 413.95 275.058C413.95 274.806 414.156 274.6 414.409 274.6C414.661 274.6 414.867 274.806 414.867 275.058Z" fill="#E0E0E0"/>
<path d="M430.582 275.058C430.582 275.311 430.376 275.517 430.123 275.517C429.87 275.517 429.664 275.311 429.664 275.058C429.664 274.806 429.87 274.6 430.123 274.6C430.376 274.6 430.582 274.806 430.582 275.058Z" fill="#E0E0E0"/>
<path d="M446.303 275.058C446.303 275.311 446.097 275.517 445.844 275.517C445.591 275.517 445.385 275.311 445.385 275.058C445.385 274.806 445.591 274.6 445.844 274.6C446.097 274.6 446.303 274.806 446.303 275.058Z" fill="#E0E0E0"/>
<path d="M462.017 275.058C462.017 275.311 461.811 275.517 461.559 275.517C461.306 275.517 461.1 275.311 461.1 275.058C461.1 274.806 461.306 274.6 461.559 274.6C461.811 274.6 462.017 274.806 462.017 275.058Z" fill="#E0E0E0"/>
<path d="M477.738 275.058C477.738 275.311 477.532 275.517 477.28 275.517C477.027 275.517 476.821 275.311 476.821 275.058C476.821 274.806 477.027 274.6 477.28 274.6C477.532 274.6 477.738 274.806 477.738 275.058Z" fill="#E0E0E0"/>
<path d="M392.971 269.235C392.971 270.185 392.2 270.95 391.256 270.95C390.312 270.95 389.541 270.178 389.541 269.235C389.541 268.291 390.312 267.52 391.256 267.52C392.2 267.52 392.971 268.291 392.971 269.235Z" fill="#00B7FF"/>
<path d="M406.631 261.179C406.631 262.129 405.86 262.894 404.916 262.894C403.972 262.894 403.201 262.123 403.201 261.179C403.201 260.235 403.972 259.464 404.916 259.464C405.86 259.464 406.631 260.235 406.631 261.179Z" fill="#00B7FF"/>
<path d="M423.589 261.889C423.589 262.839 422.818 263.604 421.874 263.604C420.93 263.604 420.159 262.833 420.159 261.889C420.159 260.945 420.93 260.174 421.874 260.174C422.818 260.174 423.589 260.945 423.589 261.889Z" fill="#00B7FF"/>
<path d="M440.141 247.238C440.141 248.189 439.37 248.953 438.426 248.953C437.482 248.953 436.711 248.182 436.711 247.238C436.711 246.295 437.482 245.523 438.426 245.523C439.37 245.523 440.141 246.295 440.141 247.238Z" fill="#00B7FF"/>
<path d="M455.602 256.558C455.602 257.508 454.831 258.273 453.887 258.273C452.943 258.273 452.172 257.502 452.172 256.558C452.172 255.614 452.943 254.843 453.887 254.843C454.831 254.843 455.602 255.614 455.602 256.558Z" fill="#00B7FF"/>
<path d="M471.264 259.038C471.264 259.982 470.493 260.753 469.549 260.753C468.605 260.753 467.834 259.982 467.834 259.038C467.834 258.094 468.605 257.323 469.549 257.323C470.493 257.323 471.264 258.094 471.264 259.038Z" fill="#00B7FF"/>
<path d="M485.908 269.235C485.908 269.235 485.768 269.248 485.502 269.235C485.237 269.215 484.844 269.182 484.333 269.075C483.329 268.869 481.787 268.437 480.258 267.141C479.5 266.503 478.809 265.612 478.257 264.535C477.705 263.478 477.04 262.361 476.163 261.291C475.279 260.247 474.142 259.184 472.626 258.825C471.882 258.645 471.064 258.679 470.287 258.911C469.502 259.157 468.771 259.583 468.113 260.141C466.777 261.258 465.8 262.84 464.503 264.276C463.852 264.987 463.101 265.685 462.15 266.104C461.206 266.509 460.109 266.642 459.059 266.356C457.989 266.071 457.171 265.173 456.706 264.196C456.221 263.212 455.948 262.142 455.689 261.072C455.423 260.002 455.21 258.898 454.758 257.901C454.532 257.409 454.213 256.944 453.755 256.698C453.289 256.445 452.731 256.385 452.172 256.392C451.042 256.452 449.906 256.778 448.729 256.997C448.138 257.103 447.539 257.21 446.914 257.203C446.296 257.203 445.651 257.13 445.066 256.844C444.462 256.598 443.996 256.113 443.597 255.614C443.245 255.089 442.939 254.531 442.7 253.946C442.201 252.789 441.876 251.573 441.424 250.403C441.191 249.824 440.945 249.246 440.593 248.741C440.24 248.242 439.788 247.824 439.237 247.611C439.097 247.571 438.951 247.518 438.811 247.484L438.359 247.445C438.06 247.425 437.788 247.484 437.522 247.617C436.997 247.883 436.598 248.395 436.265 248.927C435.614 250.024 435.188 251.267 434.81 252.53C434.437 253.793 434.125 255.082 433.819 256.392C433.32 258.552 432.868 260.706 432.317 262.813C432.038 263.864 431.738 264.907 431.353 265.924C430.961 266.928 430.515 267.945 429.724 268.749C429.325 269.135 428.774 269.441 428.175 269.434C427.604 269.434 427.059 269.228 426.593 268.956C425.649 268.391 424.958 267.553 424.366 266.702C423.177 264.987 422.419 263.079 421.681 261.251C420.93 259.443 420.086 257.655 418.683 256.425C417.314 255.209 415.339 254.75 413.651 255.195C412.8 255.408 411.996 255.794 411.258 256.252C410.513 256.698 409.822 257.216 409.164 257.768C407.861 258.858 406.691 260.055 405.674 261.278H405.667V261.291C403.999 262.96 402.244 264.376 400.496 265.585C398.741 266.795 396.973 267.786 395.198 268.457C393.43 269.108 391.648 269.501 390.013 269.321C388.384 269.162 386.955 268.716 385.692 268.278C383.173 267.367 381.331 266.383 380.082 265.712C379.463 265.373 378.991 265.1 378.686 264.907C378.373 264.721 378.22 264.608 378.22 264.608C378.22 264.608 378.387 264.695 378.706 264.867C379.038 265.047 379.517 265.299 380.128 265.625C381.384 266.263 383.246 267.221 385.752 268.105C387.008 268.53 388.431 268.956 390.026 269.102C391.615 269.261 393.363 268.876 395.098 268.218C396.84 267.546 398.588 266.556 400.323 265.346C402.051 264.136 403.786 262.714 405.428 261.065V261.078C406.458 259.829 407.622 258.626 408.945 257.509C409.603 256.95 410.307 256.419 411.072 255.96C411.83 255.488 412.66 255.089 413.564 254.856C415.379 254.378 417.453 254.856 418.929 256.153C420.418 257.449 421.282 259.297 422.04 261.112C422.784 262.946 423.536 264.821 424.692 266.489C425.264 267.314 425.935 268.111 426.793 268.623C427.218 268.876 427.69 269.049 428.175 269.049C428.647 269.049 429.079 268.816 429.438 268.477C430.136 267.759 430.588 266.782 430.967 265.798C431.34 264.808 431.639 263.771 431.918 262.727C432.47 260.633 432.915 258.479 433.414 256.319C433.719 255.009 434.032 253.713 434.411 252.437C434.79 251.161 435.222 249.897 435.906 248.741C436.265 248.176 436.684 247.611 437.329 247.278C437.641 247.119 438.02 247.046 438.366 247.066L438.878 247.112C439.044 247.152 439.21 247.212 439.376 247.258C440.028 247.504 440.546 247.996 440.925 248.541C441.304 249.093 441.557 249.691 441.796 250.283C442.255 251.48 442.58 252.689 443.066 253.813C443.538 254.923 444.156 256.046 445.226 256.505C446.276 257.01 447.513 256.831 448.656 256.638C449.813 256.425 450.956 256.093 452.159 256.033C452.757 256.033 453.382 256.086 453.934 256.392C454.492 256.698 454.851 257.243 455.091 257.761C455.569 258.832 455.775 259.942 456.041 261.005C456.294 262.069 456.56 263.126 457.018 264.056C457.464 264.987 458.195 265.785 459.152 266.051C460.103 266.31 461.14 266.197 462.017 265.825C462.901 265.439 463.633 264.781 464.264 264.083C465.54 262.68 466.537 261.085 467.92 259.935C468.605 259.363 469.383 258.911 470.2 258.665C471.024 258.426 471.889 258.393 472.68 258.592C474.282 258.991 475.445 260.101 476.336 261.171C477.22 262.268 477.878 263.405 478.43 264.475C478.961 265.539 479.626 266.41 480.364 267.048C481.84 268.337 483.362 268.789 484.346 269.022C484.851 269.142 485.243 269.188 485.502 269.215C485.768 269.248 485.901 269.248 485.901 269.255L485.908 269.235Z" fill="#00B7FF"/>
<path d="M393.137 239.707C393.137 239.82 387.055 239.913 379.563 239.913C372.071 239.913 365.982 239.82 365.982 239.707C365.982 239.594 372.058 239.501 379.563 239.501C387.068 239.501 393.137 239.594 393.137 239.707Z" fill="#263238"/>
<path d="M505.757 228.24V293.478H513.647H524.516H575.169V228.24H505.757Z" fill="#F5F5F5"/>
<path d="M540.157 235.64C528.332 235.64 518.739 245.232 518.739 257.058C518.739 268.883 528.332 278.475 540.157 278.475C551.983 278.475 561.575 268.883 561.575 257.058C561.575 245.232 551.983 235.64 540.157 235.64ZM540.483 269.894C533.217 269.894 527.328 264.004 527.328 256.738C527.328 249.473 533.217 243.583 540.483 243.583C547.749 243.583 553.638 249.473 553.638 256.738C553.638 264.004 547.749 269.894 540.483 269.894Z" fill="#263238"/>
<path d="M540.483 235.646C540.483 237.926 540.483 240.997 540.483 243.576C547.749 243.576 553.638 249.465 553.638 256.731C553.638 258.12 553.419 259.463 553.02 260.719L560.784 262.827C561.296 260.992 561.575 259.058 561.575 257.057C561.575 245.337 552.162 235.825 540.483 235.646Z" fill="#00B7FF"/>
<path d="M527.321 256.732C527.321 251.375 530.525 246.768 535.119 244.714L531.821 237.315C524.13 240.566 518.733 248.177 518.733 257.052C518.733 257.351 518.746 257.65 518.753 257.949H527.374C527.335 257.543 527.315 257.138 527.315 256.726L527.321 256.732Z" fill="#455A64"/>
<path d="M540.476 269.886C539.519 269.886 538.588 269.78 537.691 269.587C537.359 271.495 536.734 275.198 536.242 278.109C537.511 278.342 538.814 278.468 540.15 278.468C549.982 278.468 558.258 271.847 560.777 262.82L553.013 260.713C551.325 266.031 546.346 269.88 540.476 269.88V269.886Z" fill="#00B7FF"/>
<g opacity="0.3">
<path d="M540.476 269.887C539.519 269.887 538.589 269.781 537.691 269.588C537.359 271.496 536.734 275.199 536.242 278.11C537.512 278.343 538.815 278.469 540.151 278.469C549.982 278.469 558.258 271.848 560.778 262.821L553.013 260.714C551.325 266.032 546.346 269.881 540.476 269.881V269.887Z" fill="black"/>
</g>
<path d="M537.638 257.795H536.847V258.819H535.75V257.795H533.131V257.038L535.424 253.953H536.608L534.48 256.878H535.79V255.967H536.854V256.878H537.645V257.795H537.638Z" fill="#263238"/>
<path d="M537.97 256.386C537.97 254.777 538.861 253.866 540.058 253.866C541.254 253.866 542.145 254.777 542.145 256.386C542.145 257.994 541.261 258.905 540.058 258.905C538.854 258.905 537.97 257.994 537.97 256.386ZM541.008 256.386C541.008 255.282 540.616 254.823 540.058 254.823C539.499 254.823 539.114 255.282 539.114 256.386C539.114 257.489 539.506 257.948 540.058 257.948C540.609 257.948 541.008 257.489 541.008 256.386Z" fill="#263238"/>
<path d="M542.604 255.235C542.604 254.418 543.102 253.893 543.813 253.893C544.525 253.893 545.017 254.404 545.017 255.235C545.017 256.066 544.525 256.578 543.813 256.578C543.102 256.578 542.604 256.06 542.604 255.235ZM544.319 255.235C544.319 254.717 544.119 254.464 543.813 254.464C543.508 254.464 543.308 254.724 543.308 255.235C543.308 255.747 543.514 256.006 543.813 256.006C544.112 256.006 544.319 255.754 544.319 255.235ZM546.712 253.946H547.536L544.212 258.812H543.388L546.712 253.946ZM545.914 257.529C545.914 256.711 546.412 256.186 547.117 256.186C547.822 256.186 548.327 256.704 548.327 257.529C548.327 258.353 547.828 258.871 547.117 258.871C546.406 258.871 545.914 258.353 545.914 257.529ZM547.622 257.529C547.622 257.017 547.423 256.758 547.117 256.758C546.811 256.758 546.612 257.01 546.612 257.529C546.612 258.047 546.818 258.3 547.117 258.3C547.416 258.3 547.622 258.041 547.622 257.529Z" fill="#263238"/>
<path d="M557.879 283.879C557.879 283.992 549.942 284.085 540.157 284.085C530.372 284.085 522.435 283.992 522.435 283.879C522.435 283.766 530.372 283.673 540.157 283.673C549.942 283.673 557.879 283.766 557.879 283.879Z" fill="#263238"/>
<path d="M549.982 287.13C549.982 287.243 545.581 287.336 540.151 287.336C534.72 287.336 530.319 287.243 530.319 287.13C530.319 287.017 534.72 286.924 540.151 286.924C545.581 286.924 549.982 287.017 549.982 287.13Z" fill="#263238"/>
<path d="M567.152 297.819H427.83V343.593H567.152V297.819Z" fill="#FAFAFA"/>
<path d="M555.406 308.647C555.406 308.727 531.728 308.793 502.526 308.793C473.324 308.793 449.646 308.727 449.646 308.647C449.646 308.567 473.318 308.501 502.526 308.501C531.735 308.501 555.406 308.567 555.406 308.647Z" fill="#EBEBEB"/>
<path d="M555.406 314.065C555.406 314.145 531.728 314.211 502.526 314.211C473.324 314.211 449.646 314.145 449.646 314.065C449.646 313.985 473.318 313.919 502.526 313.919C531.735 313.919 555.406 313.985 555.406 314.065Z" fill="#EBEBEB"/>
<path d="M555.406 319.475C555.406 319.555 531.728 319.622 502.526 319.622C473.324 319.622 449.646 319.555 449.646 319.475C449.646 319.396 473.318 319.329 502.526 319.329C531.735 319.329 555.406 319.396 555.406 319.475Z" fill="#EBEBEB"/>
<path d="M555.406 324.893C555.406 324.973 531.728 325.04 502.526 325.04C473.324 325.04 449.646 324.973 449.646 324.893C449.646 324.814 473.318 324.747 502.526 324.747C531.735 324.747 555.406 324.814 555.406 324.893Z" fill="#EBEBEB"/>
<path d="M555.406 330.31C555.406 330.39 531.728 330.457 502.526 330.457C473.324 330.457 449.646 330.39 449.646 330.31C449.646 330.231 473.318 330.164 502.526 330.164C531.735 330.164 555.406 330.231 555.406 330.31Z" fill="#EBEBEB"/>
<path d="M546.193 324.003C546.193 324.003 546.12 324.089 545.96 324.242C545.781 324.375 545.515 324.588 545.07 324.734C544.219 325.026 542.663 325.04 541.207 324.122C540.503 323.65 539.891 322.959 539.393 322.135C538.888 321.317 538.482 320.367 538.01 319.376C537.525 318.392 536.933 317.342 535.943 316.498C535.444 316.079 534.839 315.74 534.148 315.547C533.457 315.368 532.692 315.321 531.934 315.441C530.412 315.66 528.95 316.391 527.713 317.382C526.45 318.366 525.347 319.582 523.991 320.679C522.655 321.776 520.913 322.72 518.886 322.859C517.882 322.913 516.825 322.693 515.961 322.181C515.097 321.669 514.445 320.932 513.927 320.147C512.876 318.572 512.345 316.744 510.975 315.308C510.31 314.597 509.453 313.978 508.416 313.772C507.379 313.553 506.262 313.812 505.411 314.397C504.547 314.976 503.889 315.793 503.437 316.677C502.978 317.561 502.746 318.545 502.5 319.529C502.26 320.513 502.021 321.523 501.569 322.487C501.35 322.972 501.057 323.431 500.712 323.87C500.346 324.289 499.941 324.694 499.462 325.02C498.525 325.704 497.408 326.17 496.238 326.416C495.068 326.675 493.838 326.688 492.682 326.462C491.505 326.256 490.461 325.711 489.537 325.119C488.607 324.521 487.769 323.856 486.885 323.258C486.001 322.673 485.07 322.121 484.027 321.909C482.99 321.663 481.886 321.816 480.969 322.254C480.045 322.7 479.294 323.365 478.689 324.096C478.077 324.827 477.612 325.645 477.147 326.442C476.681 327.24 476.209 328.038 475.618 328.769C475.033 329.5 474.288 330.132 473.424 330.577C472.567 331.022 471.55 331.275 470.559 331.155C469.569 331.042 468.698 330.557 468.073 329.952C467.441 329.341 467.003 328.623 466.704 327.885C466.411 327.147 466.238 326.396 466.079 325.671C465.773 324.215 465.474 322.806 464.61 321.683C463.805 320.559 462.582 319.669 461.213 319.489C460.535 319.403 459.857 319.489 459.252 319.702C458.647 319.915 458.128 320.24 457.676 320.599C455.888 322.082 455.031 323.87 453.708 324.907C452.452 325.984 451.102 326.482 450.158 326.456C449.693 326.456 449.341 326.369 449.121 326.296C448.902 326.216 448.796 326.17 448.796 326.17C448.802 326.13 449.234 326.402 450.158 326.396C451.076 326.402 452.392 325.904 453.615 324.827C454.904 323.797 455.735 322.008 457.543 320.48C458.002 320.107 458.541 319.762 459.165 319.536C459.79 319.31 460.515 319.217 461.233 319.303C462.689 319.489 463.965 320.413 464.802 321.57C465.235 322.148 465.567 322.799 465.793 323.497C466.019 324.189 466.172 324.907 466.331 325.631C466.491 326.356 466.664 327.094 466.956 327.812C467.249 328.523 467.674 329.214 468.279 329.793C468.877 330.364 469.682 330.81 470.592 330.909C471.503 331.016 472.447 330.783 473.265 330.358C474.089 329.932 474.8 329.327 475.358 328.623C475.93 327.918 476.389 327.127 476.854 326.329C477.319 325.532 477.785 324.707 478.416 323.943C479.048 323.192 479.819 322.487 480.803 322.015C481.78 321.543 482.99 321.377 484.1 321.643C485.223 321.876 486.187 322.447 487.084 323.039C487.982 323.644 488.819 324.308 489.73 324.893C490.641 325.478 491.625 325.99 492.748 326.183C493.858 326.396 495.035 326.382 496.151 326.136C497.275 325.897 498.352 325.452 499.243 324.8C499.701 324.488 500.08 324.102 500.432 323.704C500.751 323.291 501.037 322.853 501.25 322.381C501.682 321.45 501.921 320.453 502.161 319.469C502.407 318.485 502.639 317.488 503.118 316.558C503.597 315.64 504.275 314.783 505.199 314.165C506.109 313.54 507.352 313.247 508.482 313.487C509.626 313.713 510.536 314.384 511.221 315.122C512.637 316.624 513.169 318.479 514.192 320.001C514.698 320.765 515.323 321.47 516.127 321.949C516.938 322.427 517.908 322.633 518.859 322.587C520.78 322.467 522.482 321.563 523.791 320.486C525.127 319.409 526.244 318.193 527.527 317.196C528.797 316.192 530.299 315.441 531.881 315.221C532.666 315.102 533.47 315.148 534.201 315.348C534.932 315.554 535.564 315.919 536.076 316.352C537.099 317.236 537.691 318.313 538.17 319.303C538.642 320.307 539.027 321.251 539.519 322.062C540.004 322.873 540.596 323.557 541.274 324.023C542.677 324.933 544.192 324.94 545.03 324.674C545.894 324.388 546.153 323.976 546.173 324.003H546.193Z" fill="#455A64"/>
<path d="M552.887 322.741C552.887 322.741 552.767 322.754 552.521 322.761C552.402 322.761 552.249 322.727 552.069 322.707C551.903 322.654 551.69 322.621 551.478 322.521C550.6 322.196 549.503 321.398 548.327 320.221C548.034 319.929 547.735 319.61 547.423 319.271C547.11 318.932 546.831 318.546 546.446 318.227C545.681 317.582 544.578 317.097 543.335 316.997C542.71 316.944 542.058 317.011 541.433 317.203C540.809 317.403 540.244 317.762 539.738 318.194C538.721 319.065 537.957 320.221 536.953 321.318C536.448 321.863 535.883 322.402 535.172 322.82C534.467 323.239 533.616 323.518 532.732 323.612C530.944 323.791 529.103 323.366 527.361 322.741C525.606 322.109 523.931 321.238 522.043 320.68C521.106 320.394 520.115 320.201 519.105 320.168C518.095 320.155 517.071 320.328 516.14 320.727C514.252 321.511 512.777 322.94 510.995 324.11C510.111 324.708 509.101 325.194 508.017 325.526C506.934 325.858 505.77 326.011 504.607 326.038C502.267 326.071 499.887 325.506 497.833 324.409C495.779 323.319 494.031 321.764 492.695 319.969C491.319 318.181 490.561 316.146 489.564 314.292C489.059 313.368 488.487 312.47 487.743 311.713C486.991 310.955 486.087 310.323 485.064 309.918C484.047 309.512 482.89 309.373 481.833 309.625C480.769 309.858 479.852 310.443 479.147 311.154C478.436 311.866 477.911 312.703 477.539 313.567C477.167 314.438 476.927 315.342 476.708 316.24C476.489 317.137 476.289 318.028 476.003 318.899C475.724 319.769 475.339 320.607 474.853 321.378C473.883 322.927 472.527 324.223 470.971 325.174C469.422 326.144 467.661 326.736 465.906 326.948C464.144 327.148 462.416 326.929 460.9 326.443C457.836 325.486 455.669 323.419 454.865 321.312C454.446 320.261 454.24 319.244 453.934 318.34C453.635 317.443 453.276 316.625 452.731 316.02C451.621 314.81 450.152 314.392 449.241 314.465C448.297 314.544 447.931 314.923 447.918 314.883C447.918 314.91 448.27 314.505 449.234 314.405C450.172 314.305 451.681 314.711 452.837 315.947C453.409 316.565 453.781 317.396 454.094 318.3C454.406 319.211 454.625 320.221 455.044 321.258C455.855 323.319 457.976 325.327 460.987 326.251C462.476 326.716 464.164 326.922 465.879 326.722C467.588 326.51 469.309 325.925 470.818 324.974C472.334 324.037 473.657 322.767 474.601 321.252C475.578 319.743 475.99 317.981 476.409 316.18C476.628 315.282 476.867 314.365 477.246 313.468C477.625 312.577 478.164 311.706 478.908 310.962C479.639 310.217 480.61 309.599 481.753 309.34C482.89 309.074 484.133 309.22 485.203 309.645C486.28 310.071 487.224 310.729 488.002 311.513C488.78 312.304 489.358 313.222 489.87 314.159C490.88 316.04 491.625 318.048 492.981 319.796C494.29 321.557 496.005 323.08 498.013 324.143C500.014 325.214 502.334 325.765 504.607 325.732C505.744 325.712 506.867 325.559 507.917 325.24C508.968 324.921 509.938 324.456 510.809 323.871C512.557 322.727 514.046 321.285 516.014 320.467C516.984 320.049 518.068 319.869 519.118 319.882C520.175 319.916 521.192 320.122 522.143 320.414C524.064 320.986 525.752 321.87 527.474 322.495C529.189 323.12 530.99 323.532 532.699 323.366C533.55 323.279 534.354 323.02 535.032 322.621C535.71 322.222 536.268 321.704 536.767 321.172C537.757 320.095 538.535 318.938 539.586 318.048C540.111 317.609 540.702 317.237 541.36 317.024C542.018 316.825 542.703 316.758 543.348 316.818C544.644 316.931 545.768 317.436 546.559 318.114C546.957 318.453 547.23 318.845 547.536 319.184C547.835 319.523 548.134 319.842 548.42 320.142C549.57 321.325 550.64 322.122 551.498 322.462C552.348 322.84 552.887 322.694 552.874 322.734L552.887 322.741Z" fill="#00B7FF"/>
<path d="M442.381 308.913C442.381 308.993 441.756 309.059 440.985 309.059C440.214 309.059 439.589 308.993 439.589 308.913C439.589 308.833 440.214 308.767 440.985 308.767C441.756 308.767 442.381 308.833 442.381 308.913Z" fill="#E0E0E0"/>
<path d="M442.381 314.065C442.381 314.145 441.756 314.211 440.985 314.211C440.214 314.211 439.589 314.145 439.589 314.065C439.589 313.985 440.214 313.919 440.985 313.919C441.756 313.919 442.381 313.985 442.381 314.065Z" fill="#E0E0E0"/>
<path d="M442.381 319.21C442.381 319.289 441.756 319.356 440.985 319.356C440.214 319.356 439.589 319.289 439.589 319.21C439.589 319.13 440.214 319.063 440.985 319.063C441.756 319.063 442.381 319.13 442.381 319.21Z" fill="#E0E0E0"/>
<path d="M442.381 324.355C442.381 324.435 441.756 324.501 440.985 324.501C440.214 324.501 439.589 324.435 439.589 324.355C439.589 324.275 440.214 324.209 440.985 324.209C441.756 324.209 442.381 324.275 442.381 324.355Z" fill="#E0E0E0"/>
<path d="M442.381 329.5C442.381 329.58 441.756 329.646 440.985 329.646C440.214 329.646 439.589 329.58 439.589 329.5C439.589 329.42 440.214 329.354 440.985 329.354C441.756 329.354 442.381 329.42 442.381 329.5Z" fill="#E0E0E0"/>
<path d="M455.237 336.121C455.237 336.201 453.987 336.267 452.438 336.267C450.889 336.267 449.64 336.201 449.64 336.121C449.64 336.041 450.889 335.975 452.438 335.975C453.987 335.975 455.237 336.041 455.237 336.121Z" fill="#E0E0E0"/>
<path d="M479.899 336.121C479.899 336.201 478.649 336.267 477.1 336.267C475.551 336.267 474.302 336.201 474.302 336.121C474.302 336.041 475.551 335.975 477.1 335.975C478.649 335.975 479.899 336.041 479.899 336.121Z" fill="#E0E0E0"/>
<path d="M504.554 336.121C504.554 336.201 503.304 336.267 501.755 336.267C500.206 336.267 498.957 336.201 498.957 336.121C498.957 336.041 500.206 335.975 501.755 335.975C503.304 335.975 504.554 336.041 504.554 336.121Z" fill="#E0E0E0"/>
<path d="M529.216 336.121C529.216 336.201 527.966 336.267 526.417 336.267C524.868 336.267 523.619 336.201 523.619 336.121C523.619 336.041 524.868 335.975 526.417 335.975C527.966 335.975 529.216 336.041 529.216 336.121Z" fill="#E0E0E0"/>
<path d="M553.877 336.121C553.877 336.201 552.628 336.267 551.079 336.267C549.53 336.267 548.28 336.201 548.28 336.121C548.28 336.041 549.53 335.975 551.079 335.975C552.628 335.975 553.877 336.041 553.877 336.121Z" fill="#E0E0E0"/>
</g>
<path opacity="0.3" d="M399.499 211.195H360.734C357.771 211.195 355.496 208.773 355.676 205.81C355.856 202.847 358.436 200.425 361.399 200.425H400.164C403.126 200.425 405.402 202.847 405.222 205.81C405.042 208.773 402.462 211.195 399.499 211.195Z" fill="#00B7FF"/>
<path d="M584.232 205.81C584.052 208.784 581.483 211.195 578.509 211.195C575.535 211.195 573.27 208.784 573.451 205.81C573.631 202.836 576.199 200.425 579.174 200.425C582.148 200.425 584.412 202.836 584.232 205.81Z" fill="#00B7FF"/>
<path d="M327.745 323.762C317.7 329.365 306.315 332.114 294.821 331.713C283.327 331.312 272.161 327.776 262.531 321.487C252.902 315.198 245.175 306.395 240.187 296.032C235.2 285.669 233.14 274.139 234.233 262.689" stroke="url(#paint1_linear_5444_3559)" stroke-width="13.5187" stroke-linecap="round" stroke-linejoin="round"/>
<circle cx="233.948" cy="259.762" r="12.4347" fill="#3491C0"/>
<path d="M471.264 102.088C481.308 96.4858 492.693 93.7363 504.188 94.1374C515.682 94.5385 526.848 98.0748 536.477 104.364C546.107 110.653 553.833 119.455 558.821 129.819C563.809 140.182 565.868 151.712 564.776 163.161" stroke="url(#paint2_linear_5444_3559)" stroke-width="13.5187" stroke-linecap="round" stroke-linejoin="round"/>
<circle cx="565.061" cy="166.089" r="12.4347" transform="rotate(-180 565.061 166.089)" fill="#3491C0"/>
</g>
<defs>
<filter id="filter0_d_5444_3559" x="284.156" y="147.195" width="360.589" height="274.858" filterUnits="userSpaceOnUse" color-interpolation-filters="sRGB">
<feFlood flood-opacity="0" result="BackgroundImageFix"/>
<feColorMatrix in="SourceAlpha" type="matrix" values="0 0 0 0 0 0 0 0 0 0 0 0 0 0 0 0 0 0 127 0" result="hardAlpha"/>
<feOffset dy="4.50623"/>
<feGaussianBlur stdDeviation="24.7843"/>
<feComposite in2="hardAlpha" operator="out"/>
<feColorMatrix type="matrix" values="0 0 0 0 0.322446 0 0 0 0 0.229583 0 0 0 0 0.633333 0 0 0 0.25 0"/>
<feBlend mode="normal" in2="BackgroundImageFix" result="effect1_dropShadow_5444_3559"/>
<feBlend mode="normal" in="SourceGraphic" in2="effect1_dropShadow_5444_3559" result="shape"/>
</filter>
<linearGradient id="paint0_linear_5444_3559" x1="304.922" y1="417.919" x2="304.922" y2="10.1055" gradientUnits="userSpaceOnUse">
<stop stop-color="#498095"/>
<stop offset="1" stop-color="#86D0EA" stop-opacity="0"/>
</linearGradient>
<linearGradient id="paint1_linear_5444_3559" x1="225.894" y1="262.689" x2="327.745" y2="331.752" gradientUnits="userSpaceOnUse">
<stop stop-color="#238ABD"/>
<stop offset="1" stop-color="#D9D9D9" stop-opacity="0"/>
</linearGradient>
<linearGradient id="paint2_linear_5444_3559" x1="573.114" y1="163.161" x2="471.264" y2="94.0985" gradientUnits="userSpaceOnUse">
<stop stop-color="#238ABD"/>
<stop offset="1" stop-color="#D9D9D9" stop-opacity="0"/>
</linearGradient>
<clipPath id="clip0_5444_3559">
<rect width="549.76" height="370.637" fill="white" transform="translate(69.9795 50.8281)"/>
</clipPath>
<clipPath id="clip1_5444_3559">
<rect width="219.503" height="116.781" fill="white" transform="translate(355.666 227.815)"/>
</clipPath>
</defs>
</svg>
